<svg xmlns="http://www.w3.org/2000/svg" xmlns:xlink="http://www.w3.org/1999/xlink" viewBox="0 0 940 675"><g transform="translate(201.077 0.14)"><g transform="translate(0 183.098)"><path d="M 0 57.669 L 99.885 0 L 199.77 57.669 L 99.885 115.337 Z" fill="rgba(255, 159, 130, 0.33)" stroke="rgb(248, 216, 206)" stroke-miterlimit="10" stroke-dasharray=""></path><path d="M 0 173.006 L 0 57.669 L 99.885 115.337 L 99.885 230.675 Z" fill="rgb(255, 207, 191)" stroke-width="1.44" stroke="rgb(255, 194, 179)" stroke-miterlimit="10" stroke-dasharray=""></path><path d="M 99.885 230.675 L 99.885 115.337 L 199.77 57.669 L 199.77 173.006 Z" fill="rgb(255, 255, 255)" stroke-width="0.6" stroke="rgb(30, 26, 16)" stroke-miterlimit="10" stroke-dasharray=""></path></g><path d="M 429.315 421.502 L 329.315 364.168 L 329.315 249.502 L 429.315 306.835 Z" fill="rgb(255, 255, 255)" stroke="rgb(30, 26, 16)" stroke-miterlimit="10" stroke-dasharray=""></path><path d="M 529.086 248.502 L 429.201 306.17 L 329.315 248.502 L 429.201 190.833 Z" fill="rgba(255, 159, 130, 0.33)"></path><path d="M 628.767 306.819 L 528.882 364.487 L 428.997 306.819 L 528.882 249.15 Z" fill="rgb(253, 213, 200)" stroke="rgb(30, 26, 16)" stroke-miterlimit="10" stroke-dasharray=""></path><g transform="translate(106.153 367.638)"><path d="M 164.81 95.153 L 164.81 0 L 329.62 95.153 L 329.62 190.307 Z" fill="rgb(243, 243, 243)" stroke="rgb(220, 220, 220)" stroke-miterlimit="10" stroke-dasharray=""></path><path d="M 0 190.307 L 0 95.153 L 164.81 0 L 164.81 95.153 Z" fill="rgb(255, 255, 255)" stroke="rgb(69, 61, 58)" stroke-miterlimit="10" stroke-dasharray=""></path><path d="M 2.883 134.08 L 167.693 38.926 L 332.504 134.08 L 167.693 229.233 Z" fill="rgb(50, 44, 44)" stroke="rgb(220, 220, 220)" stroke-miterlimit="10" stroke-dasharray=""></path></g><path d="M 159.055 196.074 L 159.055 493.067" fill="transparent" stroke="rgba(0, 0, 0, 0.5)" stroke-miterlimit="10" stroke-dasharray="4.66, 4.66"></path><path d="M 158.532 65.342 L 271.707 0 L 384.882 65.342 L 271.707 130.683 Z" fill="rgb(255, 225, 214)" stroke="rgb(30, 26, 16)" stroke-miterlimit="10" stroke-dasharray=""></path><path d="M 158.534 196.025 L 158.534 65.342 L 271.709 130.683 L 271.709 261.366 Z" fill="rgba(255, 77, 18, 0.92)" stroke="rgb(30, 26, 16)" stroke-miterlimit="10" stroke-dasharray=""></path><path d="M 176.652 155.483 L 176.397 144.238 L 171.694 141.662 L 171.636 139.093 L 176.339 141.668 L 176.29 139.485 C 176.238 137.247 177.231 136.699 179.171 137.761 L 193.837 145.792 L 194.218 162.564 L 198.484 164.901 L 198.542 167.47 L 187.125 161.217 L 187.067 158.648 L 191.454 161.051 L 191.134 146.931 L 180.274 140.985 C 179.28 140.44 179.044 140.584 179.07 141.717 L 179.103 143.181 L 185.792 146.845 L 185.852 149.414 L 179.16 145.75 L 179.416 156.996 Z M 204.014 170.813 L 203.955 168.204 L 201.64 166.936 L 201.447 158.462 L 203.762 159.729 L 203.703 157.091 L 211.162 161.175 L 211.223 163.815 L 213.564 165.097 L 213.756 173.571 L 211.415 172.29 L 211.474 174.899 Z M 204.454 167.812 L 210.885 171.332 L 210.723 164.178 L 204.291 160.656 Z M 225.621 180.443 C 225.112 181.228 223.731 181.537 222.059 180.62 C 218.616 178.736 216.602 174.386 216.514 170.489 C 216.426 166.593 218.29 164.367 221.733 166.252 C 223.405 167.169 224.836 169.015 225.394 170.385 L 225.35 168.507 L 228.139 170.033 L 228.577 189.374 L 225.79 187.847 Z M 222.607 178.382 C 224.328 179.325 225.569 178.121 225.507 175.414 C 225.447 172.706 224.118 170.097 222.398 169.154 L 222.203 169.047 C 220.409 168.065 219.242 169.336 219.302 172.043 C 219.364 174.751 220.619 177.294 222.412 178.276 Z M 237.83 189.257 C 234.799 187.598 232.099 183.554 231.995 178.966 C 231.897 174.655 234.135 173.044 237.553 174.915 C 241.019 176.814 242.952 180.764 243.04 184.661 L 243.044 185.918 L 234.73 181.365 C 234.802 183.479 236.075 185.758 237.797 186.7 L 237.942 186.78 C 239.227 187.484 240.056 187.119 240.297 186.104 L 243.06 187.618 C 242.564 190.047 240.739 190.849 237.83 189.257 Z M 234.7 178.946 L 240.299 182.013 C 240.239 180.425 239.283 178.401 237.611 177.484 L 237.442 177.392 C 236.084 176.648 234.824 177.023 234.7 178.946 Z M 248.287 194.71 L 247.974 180.894 L 250.736 182.408 L 250.794 184.949 C 251.241 183.502 252.43 183.199 254.637 184.407 L 257.303 185.866 L 257.366 188.685 L 254.531 187.132 C 252.179 185.845 250.856 186.593 250.922 189.522 L 251.075 196.237 Z" fill="rgb(255,255,255)"></path><path d="M 324.402 176.269 L 310.068 184.546 C 308.748 185.308 307.68 184.671 307.68 183.123 L 307.68 171.213 L 326.792 160.176 L 326.791 172.088 C 326.791 173.636 325.723 175.508 324.402 176.269 Z" fill="rgb(255,255,255)"></path><path d="M 354.558 158.859 L 329.288 173.45 C 327.91 174.246 326.792 176.146 326.792 177.693 L 326.792 186.802 C 326.792 188.349 327.91 188.959 329.288 188.163 L 354.558 173.573 C 355.937 172.775 357.054 170.877 357.054 169.328 L 357.054 160.221 C 357.054 158.673 355.937 158.063 354.558 158.859 Z" fill="rgb(255,255,255)"></path><path d="M 324.402 190.983 L 310.067 199.258 C 308.748 200.021 307.678 201.892 307.678 203.441 L 307.678 212.548 C 307.678 214.097 308.748 214.734 310.067 213.971 L 324.402 205.696 C 325.721 204.933 326.791 203.062 326.791 201.513 L 326.791 192.406 C 326.791 190.857 325.721 190.22 324.402 190.983 Z" fill="rgb(255,255,255)"></path><path d="M 310.133 155.083 L 354.6 129.407 C 355.955 128.625 357.054 129.245 357.054 130.793 L 357.054 139.901 C 357.054 141.449 355.955 143.337 354.6 144.12 L 307.68 171.211 L 307.68 159.301 C 307.68 157.753 308.778 155.866 310.133 155.083 Z" fill="rgb(255,255,255)"></path><path d="M 270.509 262.393 L 270.509 557.945" fill="transparent" stroke="rgba(0, 0, 0, 0.5)" stroke-miterlimit="10" stroke-dasharray="4.66, 4.66"></path></g><path d="M 729.959 479.965 L 630.074 422.296 L 630.074 306.959 L 729.959 364.627 Z" fill="rgb(255, 207, 191)" stroke="rgb(30, 26, 16)" stroke-miterlimit="10" stroke-dasharray=""></path><path d="M 829.844 421.296 L 729.959 478.965 L 729.959 363.627 L 829.844 305.959 Z" fill="rgba(38, 36, 36, 0.5)" stroke-width="1.44" stroke="rgba(0, 0, 0, 0.5)" stroke-miterlimit="10" stroke-dasharray=""></path><path d="M 584.52 197.4 L 584.52 492.952" fill="transparent" stroke="rgba(0, 0, 0, 0.5)" stroke-miterlimit="10" stroke-dasharray="4.66, 4.66"></path><path d="M 472.784 261.506 L 472.784 130.823 L 585.959 65.482 L 585.959 196.165 Z" fill="rgb(194, 65, 29)" stroke="rgb(30, 26, 16)" stroke-miterlimit="10" stroke-dasharray=""></path><g transform="translate(508.755 123.209)"><path d="M 16.724 47.2 L 2.39 55.477 C 1.07 56.24 0.001 55.602 0.001 54.054 L 0.001 42.144 L 19.114 31.108 L 19.113 43.019 C 19.113 44.567 18.045 46.439 16.724 47.2 Z" fill="rgb(255,255,255)"></path><path d="M 46.88 29.79 L 21.61 44.382 C 20.232 45.177 19.114 47.078 19.114 48.624 L 19.114 57.733 C 19.114 59.28 20.232 59.89 21.61 59.094 L 46.88 44.504 C 48.259 43.707 49.376 41.808 49.376 40.26 L 49.376 31.152 C 49.376 29.604 48.259 28.994 46.88 29.79 Z" fill="rgb(255,255,255)"></path><path d="M 16.724 61.914 L 2.389 70.19 C 1.07 70.952 0 72.824 0 74.372 L 0 83.479 C 0 85.028 1.07 85.665 2.389 84.902 L 16.724 76.627 C 18.043 75.864 19.113 73.993 19.113 72.445 L 19.113 63.337 C 19.113 61.789 18.043 61.152 16.724 61.914 Z" fill="rgb(255,255,255)"></path><path d="M 2.455 26.014 L 46.922 0.339 C 48.277 -0.444 49.376 0.176 49.376 1.724 L 49.376 10.832 C 49.376 12.381 48.277 14.269 46.922 15.051 L 0.001 42.143 L 0.001 30.232 C 0.001 28.684 1.1 26.797 2.455 26.014 Z" fill="rgb(255,255,255)"></path></g></svg>