<svg width="195" height="56" viewBox="0 0 195 56" fill="none" xmlns="http://www.w3.org/2000/svg">
<mask id="mask0_45_7" style="mask-type:luminance" maskUnits="userSpaceOnUse" x="0" y="0" width="195" height="56">
<path d="M194.34 0H0V56H194.34V0Z" fill="white"/>
</mask>
<g mask="url(#mask0_45_7)">
<mask id="mask1_45_7" style="mask-type:luminance" maskUnits="userSpaceOnUse" x="-1" y="0" width="196" height="56">
<path d="M194.346 0H-0.00683594V56H194.346V0Z" fill="white"/>
</mask>
<g mask="url(#mask1_45_7)">
<path d="M12.2664 26.3521H1.74649C0.777775 26.3521 -0.00683594 25.5551 -0.00683594 24.5712V17.0015H14.0197V24.5712C14.0197 25.5551 13.2351 26.3521 12.2664 26.3521Z" fill="#FF4F12"/>
<path d="M34.3976 26.3529H15.8522C14.8406 26.3529 14.0205 27.1504 14.0205 28.134V33.9226C14.0205 34.9062 14.8406 35.7038 15.8522 35.7038H34.3976C35.4092 35.7038 36.2293 34.9062 36.2293 33.9226V28.134C36.2293 27.1504 35.4092 26.3529 34.3976 26.3529Z" fill="#FF4F12"/>
<path d="M12.2664 35.703H1.74649C0.778152 35.703 -0.00683594 36.5003 -0.00683594 37.484V43.2727C-0.00683594 44.2563 0.778152 45.0537 1.74649 45.0537H12.2664C13.2347 45.0537 14.0197 44.2563 14.0197 43.2727V37.484C14.0197 36.5003 13.2347 35.703 12.2664 35.703Z" fill="#FF4F12"/>
<path d="M1.79368 7.64978H34.4279C35.4227 7.64978 36.2285 8.44683 36.2285 9.43089V15.2195C36.2285 16.2036 35.4227 17.0006 34.4279 17.0006H-0.00683594V9.43089C-0.00683594 8.44683 0.798894 7.64978 1.79368 7.64978Z" fill="#FF4F12"/>
<path d="M55.8363 41.1765V24.7529H48.0078V21H55.8363V17.8121C55.8363 14.5436 57.5311 12.9294 60.7593 12.9294H85.1729V37.4237H92.275V41.1765H73.2688V37.4237H80.5726V16.8033H62.4945C60.84 16.8033 60.4365 17.2069 60.4365 18.8613V21H71.5739V24.7529H60.4365V41.1765H55.8363ZM101.37 41.6904V37.8791H97.5156V25.5031H101.37V21.649H113.789V25.5031H117.685V37.8791H113.789V41.6904H101.37ZM102.226 36.8941H112.932V26.4452H102.226V36.8941ZM137.423 38.4325C136.536 40.0063 134.195 41.58 131.411 41.58C125.681 41.58 122.452 36.778 122.452 31.0883C122.452 25.3985 125.681 20.5965 131.411 20.5965C134.195 20.5965 136.536 22.1703 137.423 23.744V21H142.064V49.2471H137.423V38.4325ZM132.42 37.8272C135.285 37.8272 137.423 35.0429 137.423 31.0883C137.423 27.1337 135.285 24.3493 132.42 24.3493H132.097C129.111 24.3493 127.093 27.174 127.093 31.1286C127.093 35.0832 129.111 37.8272 132.097 37.8272H132.42ZM157.665 41.58C152.621 41.58 148.222 37.7869 148.222 31.0883C148.222 24.7932 152.056 20.5965 157.745 20.5965C163.516 20.5965 166.623 24.8739 166.623 30.5637L166.582 32.4199H152.742C152.782 35.4867 154.84 37.8272 157.705 37.8272H157.947C160.086 37.8272 161.498 36.6166 161.942 34.9218H166.543C165.614 38.9167 162.507 41.58 157.665 41.58ZM152.782 28.8689H162.104C162.063 26.5687 160.53 24.3493 157.745 24.3493H157.463C155.203 24.3493 153.064 25.9231 152.782 28.8689ZM175.081 41.1765V21H179.681V24.7125C180.488 22.2106 182.506 20.7983 186.179 20.7983H190.618V24.9143H185.895C181.982 24.9143 179.722 27.0933 179.722 31.3707V41.1765H175.081Z" fill="#272727"/>
</g>
</g>
</svg>
